<?xml version="1.0" encoding="UTF-8"?>
<svg xmlns="http://www.w3.org/2000/svg" xmlns:xlink="http://www.w3.org/1999/xlink" version="1.1" id="Layer_1" x="0px" y="0px" viewBox="0 0 24 24" style="enable-background:new 0 0 24 24;" xml:space="preserve">
<g>
	<circle style="fill:#303C42;" cx="12" cy="3.5" r="2.5"/>
	<circle style="fill:#1E88E5;" cx="12" cy="3.5" r="1.5"/>
	<path style="fill:#303C42;" d="M8.571,11h6.857c0.591,0,1.071-0.519,1.071-1.156v-0.32c0-0.835-0.414-1.599-1.08-1.992   C14.622,7.061,13.38,6.5,12,6.5S9.378,7.061,8.58,7.532C7.914,7.925,7.5,8.688,7.5,9.523v0.32C7.5,10.481,7.98,11,8.571,11z"/>
	<path style="fill:#1E88E5;" d="M8.5,9.523c0-0.476,0.231-0.919,0.588-1.13C9.779,7.986,10.845,7.5,12,7.5s2.221,0.486,2.912,0.893   c0.357,0.211,0.588,0.654,0.588,1.13v0.32C15.5,9.948,15.441,10,15.429,10H8.571C8.559,10,8.5,9.948,8.5,9.844V9.523z"/>
	<circle style="fill:#303C42;" cx="5.5" cy="15.5" r="2.5"/>
	<circle style="fill:#FFCA28;" cx="5.5" cy="15.5" r="1.5"/>
	<path style="fill:#303C42;" d="M8.92,19.532C8.122,19.061,6.88,18.5,5.5,18.5s-2.622,0.561-3.42,1.032   C1.414,19.925,1,20.688,1,21.523v0.32C1,22.481,1.48,23,2.071,23h6.857C9.52,23,10,22.481,10,21.844v-0.32   C10,20.688,9.586,19.925,8.92,19.532z"/>
	<path style="fill:#FFCA28;" d="M9,21.844C9,21.948,8.941,22,8.929,22H2.071C2.059,22,2,21.948,2,21.844v-0.32   c0-0.476,0.231-0.919,0.588-1.13C3.279,19.986,4.345,19.5,5.5,19.5s2.221,0.486,2.912,0.893C8.769,20.604,9,21.047,9,21.523V21.844   z"/>
	<circle style="fill:#303C42;" cx="18.5" cy="15.5" r="2.5"/>
	<circle style="fill:#8E24AA;" cx="18.5" cy="15.5" r="1.5"/>
	<path style="fill:#303C42;" d="M21.92,19.532c-0.798-0.471-2.04-1.032-3.42-1.032s-2.622,0.561-3.42,1.032   C14.414,19.925,14,20.688,14,21.523v0.32C14,22.481,14.48,23,15.071,23h6.857C22.52,23,23,22.481,23,21.844v-0.32   C23,20.688,22.586,19.925,21.92,19.532z"/>
	<path style="fill:#8E24AA;" d="M22,21.844C22,21.948,21.941,22,21.929,22h-6.857C15.059,22,15,21.948,15,21.844v-0.32   c0-0.476,0.231-0.919,0.588-1.13c0.691-0.407,1.757-0.893,2.912-0.893s2.221,0.486,2.912,0.893C21.769,20.604,22,21.047,22,21.523   V21.844z"/>
	<path style="fill:#303C42;" d="M12,12c-0.276,0-0.5,0.224-0.5,0.5v2.76l-2.313,1.85c-0.215,0.173-0.25,0.487-0.078,0.703   C9.208,17.936,9.354,18,9.5,18c0.109,0,0.22-0.036,0.312-0.109L12,16.141l2.187,1.75C14.28,17.964,14.39,18,14.5,18   c0.147,0,0.292-0.064,0.391-0.188c0.172-0.216,0.137-0.53-0.078-0.703l-2.312-1.85V12.5C12.5,12.224,12.276,12,12,12z"/>
	<linearGradient id="SVGID_1_" gradientUnits="userSpaceOnUse" x1="4.8789" y1="10.9168" x2="24.0538" y2="19.8582">
		<stop offset="0" style="stop-color:#FFFFFF;stop-opacity:0.2"/>
		<stop offset="1" style="stop-color:#FFFFFF;stop-opacity:0"/>
	</linearGradient>
	<path style="fill:url(#SVGID_1_);" d="M8.571,11h6.857c0.591,0,1.071-0.519,1.071-1.156v-0.32c0-0.835-0.414-1.599-1.08-1.992   C14.622,7.061,13.38,6.5,12,6.5S9.378,7.061,8.58,7.532C7.914,7.925,7.5,8.688,7.5,9.523v0.32C7.5,10.481,7.98,11,8.571,11z    M18.5,18c1.378,0,2.5-1.122,2.5-2.5S19.878,13,18.5,13S16,14.122,16,15.5S17.122,18,18.5,18z M5.5,18C6.878,18,8,16.878,8,15.5   S6.878,13,5.5,13S3,14.122,3,15.5S4.122,18,5.5,18z M12,6c1.378,0,2.5-1.122,2.5-2.5S13.378,1,12,1S9.5,2.122,9.5,3.5   S10.622,6,12,6z M8.92,19.532C8.122,19.061,6.88,18.5,5.5,18.5s-2.622,0.561-3.42,1.032C1.414,19.925,1,20.688,1,21.523v0.32   C1,22.481,1.48,23,2.071,23h6.857C9.52,23,10,22.481,10,21.844v-0.32C10,20.688,9.586,19.925,8.92,19.532z M21.92,19.532   c-0.798-0.471-2.04-1.032-3.42-1.032s-2.622,0.561-3.42,1.032C14.414,19.925,14,20.688,14,21.523v0.32   C14,22.481,14.48,23,15.071,23h6.857C22.52,23,23,22.481,23,21.844v-0.32C23,20.688,22.586,19.925,21.92,19.532z M14.5,18   c0.147,0,0.292-0.064,0.391-0.188c0.172-0.216,0.137-0.53-0.078-0.703l-2.312-1.85V12.5c0-0.276-0.224-0.5-0.5-0.5   s-0.5,0.224-0.5,0.5v2.76l-2.313,1.85c-0.215,0.173-0.25,0.487-0.078,0.703C9.208,17.936,9.354,18,9.5,18   c0.109,0,0.22-0.036,0.312-0.109L12,16.141l2.187,1.75C14.28,17.964,14.39,18,14.5,18z"/>
</g>
<g>
</g>
<g>
</g>
<g>
</g>
<g>
</g>
<g>
</g>
<g>
</g>
<g>
</g>
<g>
</g>
<g>
</g>
<g>
</g>
<g>
</g>
<g>
</g>
<g>
</g>
<g>
</g>
<g>
</g>

	
	<metadata>
		<rdf:RDF xmlns:rdf="http://www.w3.org/1999/02/22-rdf-syntax-ns#" xmlns:rdfs="http://www.w3.org/2000/01/rdf-schema#" xmlns:dc="http://purl.org/dc/elements/1.1/">
			<rdf:Description about="https://iconscout.com/legal#licenses" dc:title="Network" dc:description="Network" dc:publisher="Iconscout" dc:date="2017-03-22" dc:format="image/svg+xml" dc:language="en">
				<dc:creator>
					<rdf:Bag>
						<rdf:li/>
					</rdf:Bag>
				</dc:creator>
			</rdf:Description>
		</rdf:RDF>
    </metadata></svg>
