<?xml version="1.0" encoding="UTF-8"?><svg xmlns="http://www.w3.org/2000/svg" xmlns:xlink="http://www.w3.org/1999/xlink" version="1.1" id="Layer_1" x="0px" y="0px" viewBox="0 0 24 24" xml:space="preserve"><path fill="#878A8F" d="M14.812 17.11L12.5 15.26V12.5h-1v2.76l-2.313 1.85.625.78L12 16.14l2.187 1.75z"/><circle fill="#0097CF" cx="12" cy="3.5" r="2.5"/><path fill="#0097CF" d="M15.42 7.532C14.622 7.06 13.38 6.5 12 6.5s-2.622.561-3.42 1.032c-.666.393-1.08 1.156-1.08 1.991V11h9V9.523c0-.835-.414-1.598-1.08-1.991z"/><circle fill="#FFDA02" cx="5.5" cy="15.5" r="2.5"/><path fill="#FFDA02" d="M8.92 19.532C8.122 19.06 6.88 18.5 5.5 18.5s-2.622.561-3.42 1.032C1.414 19.925 1 20.688 1 21.523V23h9v-1.477c0-.835-.414-1.598-1.08-1.991z"/><path opacity="0.1" d="M5.5 17.75a2.624 2.624 0 0 1-2.386-1.546C3.42 17.24 4.368 18 5.5 18s2.08-.761 2.386-1.796A2.624 2.624 0 0 1 5.5 17.75z"/><path opacity="0.2" fill="#FFF" d="M5.5 13.25c1.062 0 1.973.637 2.386 1.546C7.58 13.76 6.632 13 5.5 13s-2.08.761-2.386 1.796A2.624 2.624 0 0 1 5.5 13.25z"/><path opacity="0.1" d="M1 22.75h9V23H1z"/><circle fill="#AB3192" cx="18.5" cy="15.5" r="2.5"/><path fill="#AB3192" d="M21.92 19.532c-.798-.471-2.04-1.032-3.42-1.032s-2.622.561-3.42 1.032c-.666.393-1.08 1.156-1.08 1.991V23h9v-1.477c0-.835-.414-1.598-1.08-1.991z"/><path opacity="0.2" fill="#FFF" d="M8.92 19.532C8.122 19.06 6.88 18.5 5.5 18.5s-2.622.561-3.42 1.032C1.414 19.925 1 20.688 1 21.523v.25c0-.835.414-1.598 1.08-1.991.798-.471 2.04-1.032 3.42-1.032s2.622.561 3.42 1.032c.666.393 1.08 1.156 1.08 1.991v-.25c0-.835-.414-1.598-1.08-1.991z"/><path opacity="0.1" d="M12 5.75a2.624 2.624 0 0 1-2.386-1.546C9.92 5.24 10.868 6 12 6s2.08-.761 2.386-1.796A2.624 2.624 0 0 1 12 5.75z"/><path opacity="0.2" fill="#FFF" d="M12 1.25c1.062 0 1.973.637 2.386 1.546C14.08 1.76 13.132 1 12 1s-2.08.761-2.386 1.796A2.624 2.624 0 0 1 12 1.25z"/><path opacity="0.1" d="M7.5 10.75h9V11h-9z"/><path opacity="0.2" fill="#FFF" d="M15.42 7.532C14.622 7.06 13.38 6.5 12 6.5s-2.622.561-3.42 1.032c-.666.393-1.08 1.156-1.08 1.991v.25c0-.835.414-1.598 1.08-1.991C9.378 7.31 10.62 6.75 12 6.75s2.622.561 3.42 1.032c.666.393 1.08 1.156 1.08 1.991v-.25c0-.835-.414-1.598-1.08-1.991z"/><path opacity="0.1" d="M18.5 17.75a2.624 2.624 0 0 1-2.386-1.546C16.42 17.24 17.368 18 18.5 18s2.08-.761 2.386-1.796A2.624 2.624 0 0 1 18.5 17.75z"/><path opacity="0.2" fill="#FFF" d="M18.5 13.25c1.062 0 1.973.637 2.386 1.546C20.58 13.76 19.632 13 18.5 13s-2.08.761-2.386 1.796A2.624 2.624 0 0 1 18.5 13.25z"/><path opacity="0.1" d="M14 22.75h9V23h-9z"/><path opacity="0.2" fill="#FFF" d="M21.92 19.532c-.798-.471-2.04-1.032-3.42-1.032s-2.622.561-3.42 1.032c-.666.393-1.08 1.156-1.08 1.991v.25c0-.835.414-1.598 1.08-1.991.798-.471 2.04-1.032 3.42-1.032s2.622.561 3.42 1.032c.666.393 1.08 1.156 1.08 1.991v-.25c0-.835-.414-1.598-1.08-1.991z"/><linearGradient id="SVGID_1_" gradientUnits="userSpaceOnUse" x1="4.8030214" y1="11.0795517" x2="24.3157024" y2="20.1784649"><stop offset="0" stop-color="#FFF" stop-opacity="0.2"/><stop offset="1" stop-color="#FFF" stop-opacity="0"/></linearGradient><path fill="url(#SVGID_1_)" d="M14.812 17.11L12.5 15.26V12.5h-1v2.76l-2.313 1.85.625.78L12 16.14l2.187 1.75.625-.78zM12 6c1.378 0 2.5-1.122 2.5-2.5S13.378 1 12 1 9.5 2.122 9.5 3.5 10.622 6 12 6zm4.5 3.523c0-.835-.414-1.598-1.08-1.991C14.622 7.06 13.38 6.5 12 6.5s-2.622.561-3.42 1.032c-.666.393-1.08 1.156-1.08 1.991V11h9V9.523zM5.5 18C6.878 18 8 16.878 8 15.5S6.878 13 5.5 13 3 14.122 3 15.5 4.122 18 5.5 18zm3.42 1.532C8.122 19.06 6.88 18.5 5.5 18.5s-2.622.561-3.42 1.032C1.414 19.925 1 20.688 1 21.523V23h9v-1.477c0-.835-.414-1.598-1.08-1.991zM18.5 18c1.378 0 2.5-1.122 2.5-2.5S19.878 13 18.5 13 16 14.122 16 15.5s1.122 2.5 2.5 2.5zm3.42 1.532c-.798-.471-2.04-1.032-3.42-1.032s-2.622.561-3.42 1.032c-.666.393-1.08 1.156-1.08 1.991V23h9v-1.477c0-.835-.414-1.598-1.08-1.991z"/><metadata><rdf:RDF xmlns:rdf="http://www.w3.org/1999/02/22-rdf-syntax-ns#" xmlns:rdfs="http://www.w3.org/2000/01/rdf-schema#" xmlns:dc="http://purl.org/dc/elements/1.1/"><rdf:Description about="https://iconscout.com/legal#licenses" dc:title="network,networking,marketing,people,team,social" dc:description="network,networking,marketing,people,team,social" dc:publisher="Iconscout" dc:date="2017-10-04" dc:format="image/svg+xml" dc:language="en"><dc:creator><rdf:Bag><rdf:li>Those Icons</rdf:li></rdf:Bag></dc:creator></rdf:Description></rdf:RDF></metadata></svg>