<svg id="SvgjsSvg1001" width="288" height="288" xmlns="http://www.w3.org/2000/svg" version="1.1" xmlns:xlink="http://www.w3.org/1999/xlink" xmlns:svgjs="http://svgjs.com/svgjs"><defs id="SvgjsDefs1002"></defs><g id="SvgjsG1008" transform="matrix(0.916700005531311,0,0,0.916700005531311,11.995199203491211,11.995199203491211)"><svg xmlns="http://www.w3.org/2000/svg" viewBox="0 0 24 24" width="288" height="288"><g fill="none" stroke="#9d9d9d" stroke-linecap="round" stroke-linejoin="round" stroke-miterlimit="10" class="colorStroke303C42 svgStroke"><path d="M10 5.5L17 3 10 .5 3 3z" fill="#ffed31" class="color000 svgShape"></path><path d="M16.5 5.5v-2L10 3M16.5 10.5L16 10l.5-2.5.5 2.5-.5.5" fill="#ffed31" class="color000 svgShape"></path><ellipse cx="16.5" cy="6.5" rx=".5" ry="1" fill="#ffed31" class="color000 svgShape"></ellipse><circle cx="18" cy="18" r="5.5" fill="#ffed31" class="color000 svgShape"></circle><path d="M16.5 20.5h1.75a1.25 1.25 0 100-2.5h-.5a1.25 1.25 0 110-2.5h1.75M18 14.5v1M18 20.5v1M13.175 15.36A14.902 14.902 0 0010 15c-2.858 0-5.471.925-7.23 1.748C1.374 17.4.5 18.816.5 20.355V21A1.5 1.5 0 002 22.5h12.844M14.133 14.133l7.734 7.734M5.5 3.893V7S8 8 10 8c1.999 0 4.5-1 4.5-1V3.893" fill="#ffed31" class="color000 svgShape"></path><path d="M5.915 7.154A4.433 4.433 0 0 0 5.5 9a4.5 4.5 0 1 0 9 0c0-.662-.158-1.281-.415-1.846" fill="#ffed31" class="color000 svgShape"></path></g></svg></g></svg>