<?xml version="1.0" encoding="UTF-8" standalone="no"?>
<svg xmlns:dc="http://purl.org/dc/elements/1.1/" xmlns:cc="http://creativecommons.org/ns#" xmlns:rdf="http://www.w3.org/1999/02/22-rdf-syntax-ns#" xmlns:svg="http://www.w3.org/2000/svg" xmlns="http://www.w3.org/2000/svg" xmlns:sodipodi="http://sodipodi.sourceforge.net/DTD/sodipodi-0.dtd" xmlns:inkscape="http://www.inkscape.org/namespaces/inkscape" width="48" height="48" viewBox="0 0 48 48.000001" id="svg2" version="1.1" inkscape:version="0.91 r13725" sodipodi:docname="handshake-congratulations-congrats-collaboration-partnership-meeting.svg">
  <defs id="defs4">
    <inkscape:path-effect effect="fillet-chamfer" id="path-effect7342-3" is_visible="true" fillet_chamfer_values="0,0 | -0.94427208,1" method="auto" radius="4" chamfer_steps="1" helper_size="0" flexible="false" use_knot_distance="false" ignore_radius_0="false" only_selected="true" hide_knots="false"/>
  </defs>
  <sodipodi:namedview id="base" pagecolor="#ffffff" bordercolor="#666666" borderopacity="1.0" inkscape:pageopacity="0.0" inkscape:pageshadow="2" inkscape:zoom="5.6" inkscape:cx="13.136853" inkscape:cy="9.7763796" inkscape:document-units="px" inkscape:current-layer="layer1" showgrid="false" units="px" inkscape:window-width="1366" inkscape:window-height="716" inkscape:window-x="-8" inkscape:window-y="-8" inkscape:window-maximized="1"/>
  
  <g inkscape:label="Layer 1" inkscape:groupmode="layer" id="layer1" transform="translate(0,-1004.3622)">
    <g id="g13451" transform="translate(485.84171,-487.862)">
      <path inkscape:connector-curvature="0" id="circle15451" d="m -437.84171,1516.2242 a 24,24 0 0 0 -24,-24 24,24 0 0 0 -24,24 24,24 0 0 0 24,24 24,24 0 0 0 24,-24 z" style="opacity:1;fill:#23cd3f;fill-opacity:1;stroke:none;stroke-width:0.26458335;stroke-linecap:round;stroke-linejoin:round;stroke-miterlimit:4;stroke-dasharray:none;stroke-dashoffset:0;stroke-opacity:1"/>
      <g style="fill:#ffffff" id="g12155" transform="translate(-198.40128,-133.23159)">
        <path style="color:#000000;font-style:normal;font-variant:normal;font-weight:normal;font-stretch:normal;font-size:medium;line-height:normal;font-family:sans-serif;text-indent:0;text-align:start;text-decoration:none;text-decoration-line:none;text-decoration-style:solid;text-decoration-color:#000000;letter-spacing:normal;word-spacing:normal;text-transform:none;direction:ltr;writing-mode:lr-tb;baseline-shift:baseline;text-anchor:start;white-space:normal;clip-rule:nonzero;display:inline;overflow:visible;visibility:visible;opacity:1;isolation:auto;mix-blend-mode:normal;color-interpolation:sRGB;color-interpolation-filters:linearRGB;solid-color:#000000;solid-opacity:1;fill:#ffffff;fill-opacity:1;fill-rule:evenodd;stroke:none;stroke-width:1;stroke-linecap:butt;stroke-linejoin:miter;stroke-miterlimit:4;stroke-dasharray:none;stroke-dashoffset:0;stroke-opacity:1;color-rendering:auto;image-rendering:auto;shape-rendering:auto;text-rendering:auto;enable-background:accumulate" d="m -272.25195,621.9043 -5.16211,7.37304 2.45703,1.72071 5.16211,-7.37305 z m -3.07813,6.5039 a 0.5,0.5 0 0 1 0.46485,0.30078 0.5,0.5 0 0 1 -0.25977,0.65821 0.5,0.5 0 0 1 -0.6582,-0.25977 0.5,0.5 0 0 1 0.25976,-0.6582 0.5,0.5 0 0 1 0.19336,-0.041 z" transform="translate(0,1020.3622)" id="path12138" inkscape:connector-curvature="0"/>
        <path style="color:#000000;font-style:normal;font-variant:normal;font-weight:normal;font-stretch:normal;font-size:medium;line-height:normal;font-family:sans-serif;text-indent:0;text-align:start;text-decoration:none;text-decoration-line:none;text-decoration-style:solid;text-decoration-color:#000000;letter-spacing:normal;word-spacing:normal;text-transform:none;direction:ltr;writing-mode:lr-tb;baseline-shift:baseline;text-anchor:start;white-space:normal;clip-rule:nonzero;display:inline;overflow:visible;visibility:visible;opacity:1;isolation:auto;mix-blend-mode:normal;color-interpolation:sRGB;color-interpolation-filters:linearRGB;solid-color:#000000;solid-opacity:1;fill:#ffffff;fill-opacity:1;fill-rule:evenodd;stroke:none;stroke-width:1;stroke-linecap:butt;stroke-linejoin:miter;stroke-miterlimit:4;stroke-dasharray:none;stroke-dashoffset:0;stroke-opacity:1;color-rendering:auto;image-rendering:auto;shape-rendering:auto;text-rendering:auto;enable-background:accumulate" d="m -254.62891,621.9043 -2.45703,1.7207 5.16211,7.37305 2.45703,-1.72071 z m 3.09375,6.5039 a 0.5,0.5 0 0 1 0.47852,0.47071 0.5,0.5 0 0 1 -0.46875,0.52929 0.5,0.5 0 0 1 -0.5293,-0.46875 0.5,0.5 0 0 1 0.46875,-0.52929 0.5,0.5 0 0 1 0.0508,-0.002 z" transform="translate(0,1020.3622)" id="path12140" inkscape:connector-curvature="0"/>
        <path style="color:#000000;font-style:normal;font-variant:normal;font-weight:normal;font-stretch:normal;font-size:medium;line-height:normal;font-family:sans-serif;text-indent:0;text-align:start;text-decoration:none;text-decoration-line:none;text-decoration-style:solid;text-decoration-color:#000000;letter-spacing:normal;word-spacing:normal;text-transform:none;direction:ltr;writing-mode:lr-tb;baseline-shift:baseline;text-anchor:start;white-space:normal;clip-rule:nonzero;display:inline;overflow:visible;visibility:visible;opacity:1;isolation:auto;mix-blend-mode:normal;color-interpolation:sRGB;color-interpolation-filters:linearRGB;solid-color:#000000;solid-opacity:1;fill:#ffffff;fill-opacity:1;fill-rule:evenodd;stroke:none;stroke-width:1;stroke-linecap:butt;stroke-linejoin:miter;stroke-miterlimit:4;stroke-dasharray:none;stroke-dashoffset:0;stroke-opacity:1;color-rendering:auto;image-rendering:auto;shape-rendering:auto;text-rendering:auto;enable-background:accumulate" d="m -265.44141,1645.5614 4.16211,0 3.4336,0.9805 a 0.50005,0.50005 0 0 0 0.36132,-0.033 l 0.69922,-0.3496 3.01368,4.3047 -1.71485,2.1445 -7.44531,-4.9629 a 0.50005,0.50005 0 0 0 -0.27734,-0.084 l -1.5,0 a 0.50005,0.50005 0 0 0 -0.41602,0.2227 l -0.85156,1.2773 -1.79883,0 2.33398,-3.5 z" id="path12142" inkscape:connector-curvature="0"/>
        <path style="color:#000000;font-style:normal;font-variant:normal;font-weight:normal;font-stretch:normal;font-size:medium;line-height:normal;font-family:sans-serif;text-indent:0;text-align:start;text-decoration:none;text-decoration-line:none;text-decoration-style:solid;text-decoration-color:#000000;letter-spacing:normal;word-spacing:normal;text-transform:none;direction:ltr;writing-mode:lr-tb;baseline-shift:baseline;text-anchor:start;white-space:normal;clip-rule:nonzero;display:inline;overflow:visible;visibility:visible;opacity:1;isolation:auto;mix-blend-mode:normal;color-interpolation:sRGB;color-interpolation-filters:linearRGB;solid-color:#000000;solid-opacity:1;fill:#ffffff;fill-opacity:1;fill-rule:evenodd;stroke:none;stroke-width:1;stroke-linecap:butt;stroke-linejoin:miter;stroke-miterlimit:4;stroke-dasharray:none;stroke-dashoffset:0;stroke-opacity:1;color-rendering:auto;image-rendering:auto;shape-rendering:auto;text-rendering:auto;enable-background:accumulate" d="m -269.875,1645.8446 c 0.0752,0.044 0.0659,0.043 0.15039,0.09 0.42517,0.2374 0.92585,0.5013 1.40039,0.6133 0.30746,0.072 0.644,0.081 0.97266,0.076 l -1.77344,2.6602 a 0.50005,0.50005 0 0 0 0.41602,0.7773 l 3,0 a 0.50005,0.50005 0 0 0 0.41601,-0.2226 l 0.85156,-1.2774 1.08203,0 8.4336,5.6231 -0.91211,1.2168 -4.61328,-2.7676 -0.51563,0.8574 3.89844,2.3379 -0.77148,1.0605 -3.60352,-2.2519 -0.5293,0.8477 3.26172,2.039 -0.63867,0.8809 -3.11133,-1.7774 -0.49609,0.8672 2.01758,1.1524 -0.54102,0.8261 -3.25391,-1.2422 0.23047,-0.3593 c 0.44567,-0.691 0.243,-1.6292 -0.44726,-2.0762 -0.20463,-0.1325 -0.4315,-0.2 -0.66016,-0.2227 0.02,-0.511 -0.21488,-1.0225 -0.66992,-1.3203 -0.15901,-0.104 -0.33316,-0.1701 -0.50977,-0.207 0.20965,-0.6222 -0.009,-1.3363 -0.58203,-1.7109 l -0.0547,-0.035 c -0.64868,-0.4243 -1.5186,-0.2622 -1.98633,0.3418 -0.10259,-0.1371 -0.22587,-0.2616 -0.37696,-0.3594 -0.5824,-0.3771 -1.33794,-0.2885 -1.82812,0.1621 l -1.69141,-1.6914 3.43555,-4.9082 z" id="path12144" inkscape:connector-curvature="0"/>
        <path style="color:#000000;font-style:normal;font-variant:normal;font-weight:normal;font-stretch:normal;font-size:medium;line-height:normal;font-family:sans-serif;text-indent:0;text-align:start;text-decoration:none;text-decoration-line:none;text-decoration-style:solid;text-decoration-color:#000000;letter-spacing:normal;word-spacing:normal;text-transform:none;direction:ltr;writing-mode:lr-tb;baseline-shift:baseline;text-anchor:start;white-space:normal;clip-rule:nonzero;display:inline;overflow:visible;visibility:visible;opacity:1;isolation:auto;mix-blend-mode:normal;color-interpolation:sRGB;color-interpolation-filters:linearRGB;solid-color:#000000;solid-opacity:1;fill:#ffffff;fill-opacity:1;fill-rule:evenodd;stroke:none;stroke-width:1;stroke-linecap:butt;stroke-linejoin:miter;stroke-miterlimit:4;stroke-dasharray:none;stroke-dashoffset:0;stroke-opacity:1;color-rendering:auto;image-rendering:auto;shape-rendering:auto;text-rendering:auto;enable-background:accumulate" d="m -270.52148,1653.0478 c 0.0639,0.012 0.12756,0.035 0.1875,0.074 0.21978,0.1423 0.2826,0.4034 0.17382,0.6308 l -1.0332,1.5664 c -0.16226,0.1294 -0.38494,0.148 -0.57422,0.025 -0.23976,-0.1552 -0.30323,-0.4514 -0.14844,-0.6914 l 0.89258,-1.3808 c 0.11609,-0.1801 0.31027,-0.261 0.50196,-0.2246 z" id="path12146" inkscape:connector-curvature="0"/>
        <path style="color:#000000;font-style:normal;font-variant:normal;font-weight:normal;font-stretch:normal;font-size:medium;line-height:normal;font-family:sans-serif;text-indent:0;text-align:start;text-decoration:none;text-decoration-line:none;text-decoration-style:solid;text-decoration-color:#000000;letter-spacing:normal;word-spacing:normal;text-transform:none;direction:ltr;writing-mode:lr-tb;baseline-shift:baseline;text-anchor:start;white-space:normal;clip-rule:nonzero;display:inline;overflow:visible;visibility:visible;opacity:1;isolation:auto;mix-blend-mode:normal;color-interpolation:sRGB;color-interpolation-filters:linearRGB;solid-color:#000000;solid-opacity:1;fill:#ffffff;fill-opacity:1;fill-rule:evenodd;stroke:none;stroke-width:1;stroke-linecap:butt;stroke-linejoin:miter;stroke-miterlimit:4;stroke-dasharray:none;stroke-dashoffset:0;stroke-opacity:1;color-rendering:auto;image-rendering:auto;shape-rendering:auto;text-rendering:auto;enable-background:accumulate" d="m -268.1582,1653.0595 c 0.0617,0.012 0.12204,0.036 0.17968,0.074 l 0.0547,0.035 c 0.2306,0.1508 0.28908,0.4388 0.13672,0.67 l -0.5,0.7578 c -0.0236,0.03 -0.0508,0.057 -0.0723,0.09 l -1.36718,2.0938 c -0.004,0.01 -0.006,0.013 -0.01,0.02 l -0.0312,0.047 c -0.1523,0.2311 -0.44127,0.2895 -0.67187,0.1387 l -0.0527,-0.035 c -0.23059,-0.1509 -0.28901,-0.4369 -0.13672,-0.668 l 0.20313,-0.3066 c 0.0696,-0.071 0.13374,-0.148 0.18945,-0.2344 l 0.89063,-1.3828 c 0.0225,-0.035 0.0354,-0.073 0.0547,-0.1094 l 0.64258,-0.9746 c 0.11426,-0.1735 0.30502,-0.2508 0.49024,-0.2148 z" id="path12148" inkscape:connector-curvature="0"/>
        <path style="color:#000000;font-style:normal;font-variant:normal;font-weight:normal;font-stretch:normal;font-size:medium;line-height:normal;font-family:sans-serif;text-indent:0;text-align:start;text-decoration:none;text-decoration-line:none;text-decoration-style:solid;text-decoration-color:#000000;letter-spacing:normal;word-spacing:normal;text-transform:none;direction:ltr;writing-mode:lr-tb;baseline-shift:baseline;text-anchor:start;white-space:normal;clip-rule:nonzero;display:inline;overflow:visible;visibility:visible;opacity:1;isolation:auto;mix-blend-mode:normal;color-interpolation:sRGB;color-interpolation-filters:linearRGB;solid-color:#000000;solid-opacity:1;fill:#ffffff;fill-opacity:1;fill-rule:evenodd;stroke:none;stroke-width:1;stroke-linecap:butt;stroke-linejoin:miter;stroke-miterlimit:4;stroke-dasharray:none;stroke-dashoffset:0;stroke-opacity:1;color-rendering:auto;image-rendering:auto;shape-rendering:auto;text-rendering:auto;enable-background:accumulate" d="m -267.01562,1655.0126 c 0.0639,0.012 0.12579,0.039 0.18554,0.078 0.23902,0.1564 0.30092,0.4525 0.14453,0.6914 l -0.14453,0.2227 c -0.0708,0.072 -0.13685,0.1487 -0.19336,0.2363 l -0.89062,1.3828 c -0.0324,0.05 -0.0545,0.1038 -0.0801,0.1563 l -0.0605,0.094 c -0.15644,0.2391 -0.45238,0.3009 -0.6914,0.1446 -0.23537,-0.1541 -0.29597,-0.4427 -0.14844,-0.6797 l 1.41211,-2.1446 c 0.11904,-0.1456 0.29298,-0.2155 0.4668,-0.1816 z" id="path12150" inkscape:connector-curvature="0"/>
        <path style="color:#000000;font-style:normal;font-variant:normal;font-weight:normal;font-stretch:normal;font-size:medium;line-height:normal;font-family:sans-serif;text-indent:0;text-align:start;text-decoration:none;text-decoration-line:none;text-decoration-style:solid;text-decoration-color:#000000;letter-spacing:normal;word-spacing:normal;text-transform:none;direction:ltr;writing-mode:lr-tb;baseline-shift:baseline;text-anchor:start;white-space:normal;clip-rule:nonzero;display:inline;overflow:visible;visibility:visible;opacity:1;isolation:auto;mix-blend-mode:normal;color-interpolation:sRGB;color-interpolation-filters:linearRGB;solid-color:#000000;solid-opacity:1;fill:#ffffff;fill-opacity:1;fill-rule:evenodd;stroke:none;stroke-width:1;stroke-linecap:butt;stroke-linejoin:miter;stroke-miterlimit:4;stroke-dasharray:none;stroke-dashoffset:0;stroke-opacity:1;color-rendering:auto;image-rendering:auto;shape-rendering:auto;text-rendering:auto;enable-background:accumulate" d="m -265.67969,1656.5614 c 0.0639,0.012 0.12756,0.037 0.1875,0.076 0.23976,0.1553 0.30323,0.4514 0.14844,0.6914 l -0.89063,1.3828 c -0.15483,0.2401 -0.45165,0.3038 -0.6914,0.1485 -0.20786,-0.1347 -0.27391,-0.3757 -0.18945,-0.5938 l 1.05078,-1.6055 c 0.11068,-0.088 0.24741,-0.1256 0.38476,-0.1 z" id="path12153" inkscape:connector-curvature="0"/>
      </g>
    </g>
  </g>

	<metadata>
		<rdf:RDF xmlns:rdf="http://www.w3.org/1999/02/22-rdf-syntax-ns#" xmlns:rdfs="http://www.w3.org/2000/01/rdf-schema#" xmlns:dc="http://purl.org/dc/elements/1.1/">
			<rdf:Description about="https://iconscout.com/legal#licenses" dc:title="handshake-congratulations-congrats-collaboration-partnership-meeting" dc:description="handshake-congratulations-congrats-collaboration-partnership-meeting" dc:publisher="Iconscout" dc:date="2017-04-11" dc:format="image/svg+xml" dc:language="en">
				<dc:creator>
					<rdf:Bag>
						<rdf:li>Vignesh Oviyan</rdf:li>
					</rdf:Bag>
				</dc:creator>
			</rdf:Description>
		</rdf:RDF>
    </metadata></svg>
